# xmcd CD database file
#
# Track frame offsets:
#	150
#	20967
#	39275
#
# Disc length: 798 seconds
#
# Revision: 3
# Processed by: cddbd v1.5PL3 Copyright (c) Steve Scherf et al.
# Submitted via: CDex 1.40Release
#
DISCID=1e031c03
DTITLE=倉木麻衣 - Kiss
DYEAR=2003
DGENRE=JPop
TTITLE0=Kiss
TTITLE1=You are not the only one
TTITLE2=Kiss(Instrumental)
EXTD=YEAR: 2003
EXTT0=
EXTT1=
EXTT2=
PLAYORDER=
